<svg xmlns="http://www.w3.org/2000/svg" width="500" height="50" preserveAspectRatio="none"><g fill="none" clip-path="url(&quot;#a&quot;)"><path fill="#32325d" d="M0 0h500v50H0z"/><circle cx="317.65" cy="48.48" r="4.795" fill="url(#b)"/><circle cx="375.37" cy="35.04" r="2.365" fill="#43468b"/><circle cx="48.61" cy="25.35" r="1.83" fill="url(#c)"/><circle cx="30.26" cy="15.96" r="3.56" fill="url(#d)"/><circle cx="170.62" cy="2.36" r="2.135" fill="url(#e)"/><circle cx="204.73" cy="14.19" r="4.485" fill="url(#f)"/><circle cx="351.09" cy="37.56" r="4.525" fill="url(#g)"/><circle cx="357.17" cy="7.7" r="3.155" fill="#43468b"/></g><defs><linearGradient id="b" x1="308.06" x2="327.24" y1="48.48" y2="48.48" gradientUnits="userSpaceOnUse"><stop offset=".1" stop-color="#e298de"/><stop offset=".9" stop-color="rgba(80, 77, 182, 1)"/></linearGradient><linearGradient id="c" x1="44.95" x2="52.27" y1="25.35" y2="25.35" gradientUnits="userSpaceOnUse"><stop offset=".1" stop-color="#e298de"/><stop offset=".9" stop-color="rgba(80, 77, 182, 1)"/></linearGradient><linearGradient id="d" x1="23.14" x2="37.38" y1="15.96" y2="15.96" gradientUnits="userSpaceOnUse"><stop offset=".1" stop-color="#ab3c51"/><stop offset=".9" stop-color="#4f4484"/></linearGradient><linearGradient id="e" x1="166.35" x2="174.89" y1="2.36" y2="2.36" gradientUnits="userSpaceOnUse"><stop offset=".1" stop-color="#ab3c51"/><stop offset=".9" stop-color="#4f4484"/></linearGradient><linearGradient id="f" x1="195.76" x2="213.7" y1="14.19" y2="14.19" gradientUnits="userSpaceOnUse"><stop offset=".1" stop-color="#e298de"/><stop offset=".9" stop-color="rgba(80, 77, 182, 1)"/></linearGradient><linearGradient id="g" x1="342.04" x2="360.14" y1="37.56" y2="37.56" gradientUnits="userSpaceOnUse"><stop offset=".1" stop-color="#84b6e0"/><stop offset=".9" stop-color="#464a8f"/></linearGradient><clipPath id="a"><path d="M0 0h500v50H0z"/></clipPath></defs></svg>